<?xml version="1.0" encoding="UTF-8"?>
<svg version="1.1" xmlns="http://www.w3.org/2000/svg" width="512" height="512">
<path d="M0 0 C0.66 -0.0103125 1.32 -0.020625 2 -0.03125 C4.96177768 0.7554722 6.09823457 2.11671012 8 4.5 C8.48101807 7.56256104 8.48101807 7.56256104 8.45410156 11.19628906 C8.45468567 11.86011597 8.45526978 12.52394287 8.45587158 13.20788574 C8.45309265 15.39433738 8.42201328 17.57941262 8.390625 19.765625 C8.38316184 21.28447729 8.37746926 22.80333922 8.37347412 24.32220459 C8.35822341 28.31403325 8.31894723 32.30527697 8.2746582 36.296875 C8.23369289 40.37231534 8.21546046 44.44785048 8.1953125 48.5234375 C8.15245175 56.51589302 8.08420804 64.50787368 8 72.5 C9.66482422 72.48163086 9.66482422 72.48163086 11.36328125 72.46289062 C17.07498428 72.52117331 20.84755084 74.47838598 24.9921875 78.37109375 C29.97061353 83.83496796 32.19242945 88.17719627 32.4140625 95.67578125 C32.45273438 96.83271484 32.49140625 97.98964844 32.53125 99.18164062 C32.5621875 100.37982422 32.593125 101.57800781 32.625 102.8125 C32.66367188 104.03001953 32.70234375 105.24753906 32.7421875 106.50195312 C32.83628002 109.50115228 32.92192209 112.50034823 33 115.5 C41.55642259 108.70712597 41.55642259 108.70712597 46.6875 99.5859375 C46.56977692 97.03150004 46.56977692 97.03150004 45.96875 94.71875 C46 92.5 46 92.5 48.1796875 89.97265625 C49.11039062 89.15667969 50.04109375 88.34070313 51 87.5 C51.73476562 86.82839844 52.46953125 86.15679687 53.2265625 85.46484375 C85.38042942 58.28592367 130.512277 40.69073806 172.71484375 40.26171875 C173.92195763 40.24695999 173.92195763 40.24695999 175.15345764 40.23190308 C231.28843157 39.68760072 281.5737531 55.98864455 324 93.5 C324.91652344 94.2940625 325.83304687 95.088125 326.77734375 95.90625 C331.96530532 100.46229445 336.58725215 105.19903309 341 110.5 C341.73605469 111.33660156 342.47210938 112.17320313 343.23046875 113.03515625 C366.57427841 140.01599826 381.3775503 172.83732727 389 207.5 C389.17934082 208.29647949 389.35868164 209.09295898 389.54345703 209.91357422 C400.39603061 260.70620506 387.97226461 317.41204441 360.48144531 360.90234375 C349.69390621 377.16937666 337.0892866 393.0228551 322 405.5 C321.16597656 406.23347656 320.33195312 406.96695312 319.47265625 407.72265625 C292.49515786 431.07354992 259.66375504 445.8773123 225 453.5 C224.20352051 453.67934082 223.40704102 453.85868164 222.58642578 454.04345703 C180.22095101 463.09544793 133.86327993 455.40236289 95 437.5 C94.3704541 437.21737305 93.7409082 436.93474609 93.09228516 436.64355469 C82.49213321 431.86496343 82.49213321 431.86496343 79 426.5 C79.25 422.6875 79.25 422.6875 80 419.5 C78.35 418.84 76.7 418.18 75 417.5 C71.37 414.86 67.74 412.22 64 409.5 C53.44 409.17 42.88 408.84 32 408.5 C32 432.26 32 456.02 32 480.5 C41.24 480.5 50.48 480.5 60 480.5 C64 484.5 64 484.5 64.53125 486.5 C64.5209375 487.16 64.510625 487.82 64.5 488.5 C64.5103125 489.16 64.520625 489.82 64.53125 490.5 C63.76036873 493.40214124 62.2820873 494.59143083 60 496.5 C57.64489746 497.00336456 57.64489746 497.00336456 54.99023438 497.00793457 C53.47610962 497.02485352 53.47610962 497.02485352 51.93139648 497.04211426 C50.82997314 497.03401733 49.7285498 497.02592041 48.59375 497.01757812 C47.4291626 497.0245874 46.2645752 497.03159668 45.06469727 497.03881836 C41.20955667 497.05644432 37.35514826 497.04475841 33.5 497.03125 C30.82486047 497.03394357 28.14974331 497.03781853 25.47460938 497.04284668 C19.8658045 497.05012197 14.25721037 497.04053871 8.6484375 497.02148438 C2.16582093 496.99971557 -4.31629242 497.00676705 -10.79889679 497.02879 C-16.36676589 497.04694759 -21.93448359 497.04950066 -27.50237274 497.03903532 C-30.8269567 497.03280222 -34.15125252 497.03353198 -37.47583008 497.04518127 C-41.18215157 497.05531748 -44.88750107 497.03988485 -48.59375 497.01757812 C-49.69517334 497.02567505 -50.79659668 497.03377197 -51.93139648 497.04211426 C-53.44552124 497.02519531 -53.44552124 497.02519531 -54.99023438 497.00793457 C-55.86627319 497.00642647 -56.74231201 497.00491837 -57.64489746 497.00336456 C-60.77899391 496.33350282 -61.9944513 494.94063755 -64 492.5 C-64.53125 490.5 -64.53125 490.5 -64.5 488.5 C-64.5103125 487.84 -64.520625 487.18 -64.53125 486.5 C-64 484.5 -64 484.5 -60 480.5 C-50.76 480.5 -41.52 480.5 -32 480.5 C-32 456.74 -32 432.98 -32 408.5 C-43.88 408.5 -55.76 408.5 -68 408.5 C-72 404.5 -72 404.5 -72.53125 402.5 C-72.5209375 401.84 -72.510625 401.18 -72.5 400.5 C-72.5103125 399.84 -72.520625 399.18 -72.53125 398.5 C-71.70377239 395.38479018 -70.63209566 394.4085158 -68 392.5 C-64.57262805 391.99862792 -61.20441125 392.12420911 -57.75 392.25 C-56.81414063 392.26804687 -55.87828125 392.28609375 -54.9140625 392.3046875 C-52.60832985 392.35174327 -50.30469055 392.41746287 -48 392.5 C-48.00151888 391.93443901 -48.00303776 391.36887803 -48.00460267 390.78617883 C-48.09406925 357.28394443 -48.16272306 323.78173992 -48.20426132 290.27941288 C-48.20926429 286.2588662 -48.21444156 282.23831976 -48.21972656 278.21777344 C-48.2207758 277.41733792 -48.22182505 276.6169024 -48.22290608 275.79221126 C-48.2403225 262.82302387 -48.27186697 249.85390723 -48.30861118 236.88476184 C-48.34598624 223.58224096 -48.36822857 210.2797572 -48.37635398 196.97718596 C-48.38184891 188.76539938 -48.39921862 180.55381276 -48.43166587 172.34208772 C-48.4527714 166.71486996 -48.45920907 161.08775594 -48.45400551 155.46050146 C-48.45143748 152.21132156 -48.45760874 148.96256664 -48.4768219 145.71343231 C-48.49662047 142.19378358 -48.49197549 138.6750018 -48.48101807 135.15533447 C-48.49266943 134.1242117 -48.5043208 133.09308892 -48.51632524 132.03072 C-48.45818276 125.15721035 -48.45818276 125.15721035 -46.15841293 121.85845566 C-43.22846707 120.01441485 -41.18180507 120.10079108 -37.75 120.25 C-36.67234375 120.28609375 -35.5946875 120.3221875 -34.484375 120.359375 C-33.66453125 120.40578125 -32.8446875 120.4521875 -32 120.5 C-32.02094727 119.6028125 -32.04189453 118.705625 -32.06347656 117.78125 C-32.13207616 114.41900141 -32.18200294 111.05750765 -32.21972656 107.69482422 C-32.23971295 106.24581083 -32.26691197 104.79687675 -32.30175781 103.34814453 C-32.52220504 93.94023473 -32.57853743 86.7248121 -26.03515625 79.2578125 C-19.81296393 74.10756222 -16.20996602 72.41378099 -8 72.5 C-8.00888245 71.65697327 -8.01776489 70.81394653 -8.0269165 69.94537354 C-8.1070705 61.99995807 -8.16796841 54.05467842 -8.20724869 46.10895157 C-8.22812211 42.0239563 -8.25643463 37.93929515 -8.30175781 33.85449219 C-8.3452253 29.91225655 -8.36913895 25.97034223 -8.37950897 22.02788544 C-8.38689882 20.52395316 -8.40132967 19.02003843 -8.42292023 17.51624298 C-8.45196812 15.40920541 -8.45595571 13.30349471 -8.45410156 11.19628906 C-8.46298401 9.99715881 -8.47186646 8.79802856 -8.48101807 7.56256104 C-7.71758235 2.70189435 -5.00421618 -0.07819088 0 0 Z " fill="#60DF99" transform="translate(96,7.5)"/>
<path d="M0 0 C0.66 -0.0103125 1.32 -0.020625 2 -0.03125 C4.96177768 0.7554722 6.09823457 2.11671012 8 4.5 C8.48101807 7.56256104 8.48101807 7.56256104 8.45410156 11.19628906 C8.45468567 11.86011597 8.45526978 12.52394287 8.45587158 13.20788574 C8.45309265 15.39433738 8.42201328 17.57941262 8.390625 19.765625 C8.38316184 21.28447729 8.37746926 22.80333922 8.37347412 24.32220459 C8.35822341 28.31403325 8.31894723 32.30527697 8.2746582 36.296875 C8.23369289 40.37231534 8.21546046 44.44785048 8.1953125 48.5234375 C8.15245175 56.51589302 8.08420804 64.50787368 8 72.5 C9.66482422 72.48163086 9.66482422 72.48163086 11.36328125 72.46289062 C17.07498428 72.52117331 20.84755084 74.47838598 24.9921875 78.37109375 C30.38746675 84.2924687 32.26223042 88.63900436 32.1953125 96.76953125 C32.1924826 97.45053391 32.18965271 98.13153656 32.18673706 98.83317566 C32.17560525 100.99313455 32.15051457 103.15266794 32.125 105.3125 C32.11496111 106.78319711 32.10583685 108.25390076 32.09765625 109.72460938 C32.07568913 113.31654286 32.0412082 116.90822985 32 120.5 C32.68634521 120.48404785 33.37269043 120.4680957 34.07983398 120.45166016 C34.98032471 120.43925293 35.88081543 120.4268457 36.80859375 120.4140625 C37.70118896 120.39811035 38.59378418 120.3821582 39.51342773 120.36572266 C42.70647006 120.53815008 44.56232611 121.45549932 47 123.5 C48.1832255 125.86645101 48.12428473 127.27638686 48.12304783 129.91593361 C48.12503888 130.84998232 48.12702993 131.78403104 48.12908131 132.74638426 C48.12616847 133.77944178 48.12325563 134.81249929 48.12025452 135.87686157 C48.12110894 136.9688789 48.12196337 138.06089623 48.12284368 139.186005 C48.12449956 142.86962514 48.11897533 146.55320041 48.11352539 150.23681641 C48.11324352 152.86761982 48.11340126 155.49842332 48.1139679 158.12922668 C48.11449302 163.80574641 48.11134745 169.48225467 48.10573006 175.15877151 C48.09761345 183.36612717 48.09499967 191.57347727 48.09374207 199.78083651 C48.0915518 213.09575613 48.0848924 226.41066964 48.07543945 239.72558594 C48.06626468 252.66210906 48.05918417 265.59863053 48.05493164 278.53515625 C48.05466892 279.33215862 48.05440619 280.12916099 48.05413551 280.95031495 C48.0528305 284.9485207 48.05156679 288.94672646 48.05032361 292.94493222 C48.03995178 326.12995927 48.02233415 359.31497882 48 392.5 C49.24136719 392.46519531 50.48273438 392.43039062 51.76171875 392.39453125 C53.40363226 392.36638416 55.04556046 392.33908499 56.6875 392.3125 C57.91243164 392.27479492 57.91243164 392.27479492 59.16210938 392.23632812 C63.94015822 392.17829514 67.13423093 392.35096129 71 395.5 C72.40457737 398.30915474 72.24895157 400.38810534 72 403.5 C70.22015595 406.6359157 69.47691793 407.34102736 66 408.5 C54.78 408.5 43.56 408.5 32 408.5 C32 432.26 32 456.02 32 480.5 C41.24 480.5 50.48 480.5 60 480.5 C64 484.5 64 484.5 64.53125 486.5 C64.5209375 487.16 64.510625 487.82 64.5 488.5 C64.5103125 489.16 64.520625 489.82 64.53125 490.5 C63.76036873 493.40214124 62.2820873 494.59143083 60 496.5 C57.64489746 497.00336456 57.64489746 497.00336456 54.99023438 497.00793457 C53.47610962 497.02485352 53.47610962 497.02485352 51.93139648 497.04211426 C50.82997314 497.03401733 49.7285498 497.02592041 48.59375 497.01757812 C47.4291626 497.0245874 46.2645752 497.03159668 45.06469727 497.03881836 C41.20955667 497.05644432 37.35514826 497.04475841 33.5 497.03125 C30.82486047 497.03394357 28.14974331 497.03781853 25.47460938 497.04284668 C19.8658045 497.05012197 14.25721037 497.04053871 8.6484375 497.02148438 C2.16582093 496.99971557 -4.31629242 497.00676705 -10.79889679 497.02879 C-16.36676589 497.04694759 -21.93448359 497.04950066 -27.50237274 497.03903532 C-30.8269567 497.03280222 -34.15125252 497.03353198 -37.47583008 497.04518127 C-41.18215157 497.05531748 -44.88750107 497.03988485 -48.59375 497.01757812 C-49.69517334 497.02567505 -50.79659668 497.03377197 -51.93139648 497.04211426 C-53.44552124 497.02519531 -53.44552124 497.02519531 -54.99023438 497.00793457 C-55.86627319 497.00642647 -56.74231201 497.00491837 -57.64489746 497.00336456 C-60.77899391 496.33350282 -61.9944513 494.94063755 -64 492.5 C-64.53125 490.5 -64.53125 490.5 -64.5 488.5 C-64.5103125 487.84 -64.520625 487.18 -64.53125 486.5 C-64 484.5 -64 484.5 -60 480.5 C-50.76 480.5 -41.52 480.5 -32 480.5 C-32 456.74 -32 432.98 -32 408.5 C-43.88 408.5 -55.76 408.5 -68 408.5 C-72 404.5 -72 404.5 -72.53125 402.5 C-72.5209375 401.84 -72.510625 401.18 -72.5 400.5 C-72.5103125 399.84 -72.520625 399.18 -72.53125 398.5 C-71.70377239 395.38479018 -70.63209566 394.4085158 -68 392.5 C-64.57262805 391.99862792 -61.20441125 392.12420911 -57.75 392.25 C-56.81414063 392.26804687 -55.87828125 392.28609375 -54.9140625 392.3046875 C-52.60832985 392.35174327 -50.30469055 392.41746287 -48 392.5 C-48.00151888 391.93443901 -48.00303776 391.36887803 -48.00460267 390.78617883 C-48.09406925 357.28394443 -48.16272306 323.78173992 -48.20426132 290.27941288 C-48.20926429 286.2588662 -48.21444156 282.23831976 -48.21972656 278.21777344 C-48.2207758 277.41733792 -48.22182505 276.6169024 -48.22290608 275.79221126 C-48.2403225 262.82302387 -48.27186697 249.85390723 -48.30861118 236.88476184 C-48.34598624 223.58224096 -48.36822857 210.2797572 -48.37635398 196.97718596 C-48.38184891 188.76539938 -48.39921862 180.55381276 -48.43166587 172.34208772 C-48.4527714 166.71486996 -48.45920907 161.08775594 -48.45400551 155.46050146 C-48.45143748 152.21132156 -48.45760874 148.96256664 -48.4768219 145.71343231 C-48.49662047 142.19378358 -48.49197549 138.6750018 -48.48101807 135.15533447 C-48.49266943 134.1242117 -48.5043208 133.09308892 -48.51632524 132.03072 C-48.45818276 125.15721035 -48.45818276 125.15721035 -46.15841293 121.85845566 C-43.22846707 120.01441485 -41.18180507 120.10079108 -37.75 120.25 C-36.67234375 120.28609375 -35.5946875 120.3221875 -34.484375 120.359375 C-33.66453125 120.40578125 -32.8446875 120.4521875 -32 120.5 C-32.02094727 119.6028125 -32.04189453 118.705625 -32.06347656 117.78125 C-32.13207616 114.41900141 -32.18200294 111.05750765 -32.21972656 107.69482422 C-32.23971295 106.24581083 -32.26691197 104.79687675 -32.30175781 103.34814453 C-32.52220504 93.94023473 -32.57853743 86.7248121 -26.03515625 79.2578125 C-19.81296393 74.10756222 -16.20996602 72.41378099 -8 72.5 C-8.00888245 71.65697327 -8.01776489 70.81394653 -8.0269165 69.94537354 C-8.1070705 61.99995807 -8.16796841 54.05467842 -8.20724869 46.10895157 C-8.22812211 42.0239563 -8.25643463 37.93929515 -8.30175781 33.85449219 C-8.3452253 29.91225655 -8.36913895 25.97034223 -8.37950897 22.02788544 C-8.38689882 20.52395316 -8.40132967 19.02003843 -8.42292023 17.51624298 C-8.45196812 15.40920541 -8.45595571 13.30349471 -8.45410156 11.19628906 C-8.46298401 9.99715881 -8.47186646 8.79802856 -8.48101807 7.56256104 C-7.71758235 2.70189435 -5.00421618 -0.07819088 0 0 Z " fill="#231F20" transform="translate(96,7.5)"/>
<path d="M0 0 C0.80474258 -0.00983917 1.60948517 -0.01967834 2.43861389 -0.02981567 C58.57358782 -0.57411803 108.85890935 15.7269258 151.28515625 53.23828125 C152.20167969 54.03234375 153.11820312 54.82640625 154.0625 55.64453125 C159.25046157 60.2005757 163.8724084 64.93731434 168.28515625 70.23828125 C169.02121094 71.07488281 169.75726563 71.91148438 170.515625 72.7734375 C193.85943466 99.75427951 208.66270655 132.57560852 216.28515625 167.23828125 C216.46449707 168.03476074 216.64383789 168.83124023 216.82861328 169.65185547 C227.68118686 220.44448631 215.25742086 277.15032566 187.76660156 320.640625 C176.97906246 336.90765791 164.37444285 352.76113635 149.28515625 365.23828125 C148.45113281 365.97175781 147.61710937 366.70523437 146.7578125 367.4609375 C119.78031411 390.81183117 86.94891129 405.61559355 52.28515625 413.23828125 C51.48867676 413.41762207 50.69219727 413.59696289 49.87158203 413.78173828 C7.50610726 422.83372918 -38.85156382 415.14064414 -77.71484375 397.23828125 C-78.34438965 396.9556543 -78.97393555 396.67302734 -79.62255859 396.38183594 C-90.15308767 391.63463095 -90.15308767 391.63463095 -93.71484375 386.23828125 C-93.71484375 382.49274965 -93.52982994 380.24886412 -91.15234375 377.30078125 C-86.73503048 375.37528572 -82.65649151 375.5094288 -78.21411133 377.17700195 C-75.40790968 378.51078345 -72.65434181 379.9210403 -69.90234375 381.36328125 C-59.73079167 386.46334203 -49.67887015 390.2590133 -38.71484375 393.23828125 C-37.59722656 393.5528125 -36.47960937 393.86734375 -35.328125 394.19140625 C-11.59659061 400.51981542 16.12689164 401.9308938 40.28515625 397.23828125 C41.62072688 397.00440561 42.95668775 396.77275085 44.29296875 396.54296875 C90.79194352 388.33790114 133.35954518 363.79692204 162.28515625 326.23828125 C162.68202637 325.72313965 163.07889648 325.20799805 163.48779297 324.67724609 C184.62387665 296.95133228 196.71722689 264.62274457 201.28515625 230.23828125 C201.38755615 229.50424072 201.48995605 228.7702002 201.59545898 228.01391602 C206.09990661 192.62182752 199.05080997 156.04927816 183.28515625 124.23828125 C182.94258789 123.53155273 182.60001953 122.82482422 182.24707031 122.09667969 C159.57344891 75.62949099 118.9724575 43.51849649 70.96875 26.11328125 C62.41278981 23.17349162 53.63192652 21.14306815 44.72265625 19.61328125 C44.05814453 19.49210937 43.39363281 19.3709375 42.70898438 19.24609375 C-5.23365618 10.85271044 -56.76634509 22.2651505 -96.7800293 49.93579102 C-101.96839041 53.62254801 -106.9924528 57.43619155 -111.90234375 61.48828125 C-114.52253795 63.55313564 -115.61271408 64.2166769 -118.96484375 64.92578125 C-122.59074415 64.01930615 -124.27819338 63.10492874 -126.71484375 60.23828125 C-127.56061489 54.90992304 -127.56061489 54.90992304 -126.71484375 52.23828125 C-124.46484375 49.73828125 -124.46484375 49.73828125 -121.71484375 47.23828125 C-120.98007813 46.56667969 -120.2453125 45.89507812 -119.48828125 45.203125 C-87.33441433 18.02420492 -42.20256675 0.42901931 0 0 Z " fill="#232020" transform="translate(268.71484375,47.76171875)"/>
<path d="M0 0 C21.12 0 42.24 0 64 0 C64 49.17 64 98.34 64 149 C63.01 148.01 62.02 147.02 61 146 C57.23399049 144.7446635 53.68008555 144.79883958 49.75390625 144.76171875 C48.94638412 144.753647 48.138862 144.74557526 47.30686951 144.73725891 C45.59970231 144.72343849 43.89250772 144.71270721 42.18530273 144.70483398 C39.57547911 144.68758578 36.96691125 144.64367944 34.35742188 144.59960938 C32.69792597 144.58948494 31.03841932 144.58096806 29.37890625 144.57421875 C28.59963272 144.55671066 27.82035919 144.53920258 27.01747131 144.52116394 C23.46064671 144.5354031 21.40882591 144.69833622 18.50756836 146.83911133 C16.44803735 149.79116136 16.41242002 151.47452013 17 155 C18.45257755 157.32065108 18.45257755 157.32065108 21 159 C23.91266743 159.37365963 26.43714679 159.5147565 29.34375 159.4609375 C30.14985718 159.46002106 30.95596436 159.45910461 31.78649902 159.4581604 C33.48777163 159.45212883 35.18903383 159.436396 36.89013672 159.41162109 C39.49095894 159.37512686 42.09035475 159.37060178 44.69140625 159.37109375 C46.34636645 159.36126139 48.00131702 159.34960387 49.65625 159.3359375 C50.82045471 159.33259903 50.82045471 159.33259903 52.00817871 159.32919312 C57.29498787 159.23647417 60.26548939 158.73451061 64 155 C64 163.58 64 172.16 64 181 C63.01 180.01 62.02 179.02 61 178 C56.01483337 176.33827779 50.82459031 176.73575924 45.60327148 176.70483398 C44.24444178 176.6932923 42.88565819 176.67280546 41.52709961 176.64331055 C39.56136325 176.60064451 37.59506359 176.58706945 35.62890625 176.57421875 C34.45400635 176.55963623 33.27910645 176.54505371 32.06860352 176.5300293 C28.37359689 177.09593651 27.21468017 178.04029379 25 181 C24.33333333 184 24.33333333 184 25 187 C27.20906714 189.94520079 28.37679454 190.90081743 32.05273438 191.48583984 C33.22126953 191.47762207 34.38980469 191.4694043 35.59375 191.4609375 C36.87121094 191.45707031 38.14867187 191.45320312 39.46484375 191.44921875 C40.12726074 191.43681152 40.78967773 191.4244043 41.47216797 191.41162109 C43.49367761 191.37511418 45.5133513 191.37060195 47.53515625 191.37109375 C56.62697547 191.58825795 56.62697547 191.58825795 64 187 C64 195.58 64 204.16 64 213 C63.01 212.01 62.02 211.02 61 210 C57.23399049 208.7446635 53.68008555 208.79883958 49.75390625 208.76171875 C48.94638412 208.753647 48.138862 208.74557526 47.30686951 208.73725891 C45.59970231 208.72343849 43.89250772 208.71270721 42.18530273 208.70483398 C39.57547911 208.68758578 36.96691125 208.64367944 34.35742188 208.59960938 C32.69792597 208.58948494 31.03841932 208.58096806 29.37890625 208.57421875 C28.59963272 208.55671066 27.82035919 208.53920258 27.01747131 208.52116394 C23.46064671 208.5354031 21.40882591 208.69833622 18.50756836 210.83911133 C16.44803735 213.79116136 16.41242002 215.47452013 17 219 C18.45257755 221.32065108 18.45257755 221.32065108 21 223 C23.91266743 223.37365963 26.43714679 223.5147565 29.34375 223.4609375 C30.14985718 223.46002106 30.95596436 223.45910461 31.78649902 223.4581604 C33.48777163 223.45212883 35.18903383 223.436396 36.89013672 223.41162109 C39.49095894 223.37512686 42.09035475 223.37060178 44.69140625 223.37109375 C46.34636645 223.36126139 48.00131702 223.34960387 49.65625 223.3359375 C50.82045471 223.33259903 50.82045471 223.33259903 52.00817871 223.32919312 C57.29498787 223.23647417 60.26548939 222.73451061 64 219 C64 231.21 64 243.42 64 256 C42.88 256 21.76 256 0 256 C0 171.52 0 87.04 0 0 Z " fill="#CFE0EC" transform="translate(64,144)"/>
<path d="M0 0 C2.10180664 1.20385742 2.10180664 1.20385742 3.84765625 2.91796875 C4.51555176 3.55782715 5.18344727 4.19768555 5.87158203 4.85693359 C6.57395996 5.56414551 7.27633789 6.27135742 8 7 C8.76038574 7.73686035 9.52077148 8.4737207 10.30419922 9.23291016 C12.70450625 11.57115302 15.07385561 13.93724065 17.4375 16.3125 C18.25154297 17.12267578 19.06558594 17.93285156 19.90429688 18.76757812 C21.06348633 19.92870117 21.06348633 19.92870117 22.24609375 21.11328125 C22.94404053 21.81235596 23.6419873 22.51143066 24.36108398 23.23168945 C26.63938918 25.68986978 26.97879851 26.83278122 27.40876961 30.22401619 C26.88508474 35.06152255 24.80587308 37.16960384 21.45968628 40.41574097 C20.86363748 41.02129857 20.26758868 41.62685618 19.65347779 42.25076401 C17.6523386 44.27513725 15.62713885 46.27354557 13.60107422 48.27294922 C12.16108095 49.71915353 10.72259438 51.16685941 9.2855072 52.61595154 C5.37775606 56.54708836 1.44833287 60.45587866 -2.48598719 64.36040258 C-6.59822122 68.44748759 -10.69258728 72.55240362 -14.78952026 76.65481567 C-21.67271127 83.54159281 -28.56984603 90.41415887 -35.47558594 97.27832031 C-43.46200217 105.21695826 -51.42694613 113.17664569 -59.38050663 121.14819133 C-67.02867068 128.81282346 -74.69090624 136.46323263 -82.35998154 144.10693741 C-85.6250903 147.36163706 -88.88533581 150.62109687 -92.141819 153.88442612 C-95.97658897 157.72584708 -99.82355684 161.55462024 -103.68034172 165.37393379 C-105.09476154 166.77853804 -106.50494933 168.18741852 -107.91058159 169.60081673 C-109.82834003 171.52773934 -111.76077349 173.43862091 -113.69778442 175.34616089 C-114.25227677 175.91044261 -114.80676913 176.47472433 -115.37806427 177.05610549 C-118.77337046 180.35893504 -121.22145997 181.85362086 -126 182 C-127.90087891 180.98937988 -127.90087891 180.98937988 -129.6015625 179.31445312 C-130.28250977 178.66162354 -130.96345703 178.00879395 -131.66503906 177.33618164 C-132.82084473 176.17977173 -132.82084473 176.17977173 -134 175 C-135.41065406 173.64584727 -136.82131938 172.29170626 -138.23219299 170.93778229 C-144.63463445 164.76229482 -150.93203188 158.47649293 -157.24755859 152.21240234 C-159.75437875 149.72799446 -162.27063266 147.25375192 -164.79541016 144.78759766 C-167.86109706 141.79290647 -170.90932199 138.78145006 -173.94586182 135.75721741 C-175.1009278 134.61254439 -176.26198975 133.47388824 -177.42913818 132.34153748 C-179.05683758 130.75997 -180.66112967 129.15776318 -182.26171875 127.54882812 C-183.17912842 126.64394653 -184.09653809 125.73906494 -185.04174805 124.8067627 C-187.50002071 121.28332028 -187.47618632 119.21144825 -187 115 C-185.79614258 112.89819336 -185.79614258 112.89819336 -184.08203125 111.15234375 C-183.44217285 110.48444824 -182.80231445 109.81655273 -182.14306641 109.12841797 C-181.08224854 108.07485107 -181.08224854 108.07485107 -180 107 C-179.26313965 106.23961426 -178.5262793 105.47922852 -177.76708984 104.69580078 C-175.42884698 102.29549375 -173.06275935 99.92614439 -170.6875 97.5625 C-169.87732422 96.74845703 -169.06714844 95.93441406 -168.23242188 95.09570312 C-167.07129883 93.93651367 -167.07129883 93.93651367 -165.88671875 92.75390625 C-165.18764404 92.05595947 -164.48856934 91.3580127 -163.76831055 90.63891602 C-161.32942961 88.378498 -160.15604705 88.02171918 -156.80053711 87.5546875 C-151.58802172 88.16544282 -149.68496375 90.41244082 -146.19140625 94.125 C-145.57982162 94.74648926 -144.968237 95.36797852 -144.33811951 96.00830078 C-142.39581807 97.98966806 -140.47931226 99.99399455 -138.5625 102 C-137.24707411 103.35054923 -135.93003314 104.69952739 -134.61132812 106.046875 C-131.38855359 109.34667137 -128.18869362 112.66727227 -125 116 C-121.32925414 114.45942361 -119.02061271 112.25076945 -116.23820496 109.43161011 C-115.77420125 108.96437629 -115.31019754 108.49714247 -114.83213311 108.01575005 C-113.28067057 106.45120556 -111.73650593 104.87965172 -110.19213867 103.30810547 C-109.08025176 102.18419311 -107.96786841 101.0607717 -106.85502625 99.93780518 C-104.46031302 97.51983089 -102.06850209 95.09903418 -99.6787014 92.67620468 C-95.89931197 88.84591091 -92.10962635 85.02591942 -88.31770325 81.20803833 C-77.53650078 70.3506884 -66.76186339 59.48695502 -56.0144043 48.59619141 C-50.07782932 42.58062942 -44.12888509 36.5775992 -38.16569501 30.58841622 C-35.01085175 27.41872101 -31.86290815 24.24277566 -28.73018456 21.05120468 C-25.78442777 18.05016748 -22.82285831 15.06570647 -19.8483448 12.0931778 C-18.75983313 10.99954574 -17.67733326 9.89989188 -16.60140228 8.79388046 C-15.13090301 7.28404595 -13.64029049 5.7973655 -12.14274597 4.31442261 C-11.3137186 3.47634504 -10.48469122 2.63826748 -9.6305418 1.77479362 C-6.22118327 -0.5254579 -4.03306489 -0.42024124 0 0 Z " fill="#231F20" transform="translate(360,165)"/>
<path d="M0 0 C21.12 0 42.24 0 64 0 C64 31.68 64 63.36 64 96 C42.88 96 21.76 96 0 96 C0 64.32 0 32.64 0 0 Z " fill="#F1F2F2" transform="translate(64,144)"/>
<path d="M0 0 C1.06816445 0.86807601 2.12918085 1.74494783 3.1875 2.625 C3.77917969 3.11226562 4.37085938 3.59953125 4.98046875 4.1015625 C7.54686166 6.51407112 9.74508093 9.29409712 12 12 C-31.23 55.23 -74.46 98.46 -119 143 C-122.64142014 141.17928993 -124.42108952 139.82322474 -127.21777344 137.00927734 C-128.03832214 136.18857758 -128.85887085 135.36787781 -129.70428467 134.52230835 C-130.58046448 133.63580597 -131.45664429 132.74930359 -132.359375 131.8359375 C-133.26375305 130.92872955 -134.1681311 130.02152161 -135.09991455 129.08682251 C-137.49796458 126.68115581 -139.88994618 124.26954264 -142.28070068 121.85662842 C-144.72385171 119.39297656 -147.17271206 116.93501423 -149.62109375 114.4765625 C-154.41933788 109.65626427 -159.21182732 104.83030157 -164 100 C-160.32167983 95.47384007 -156.58913637 91.60575001 -152 88 C-150.78268188 89.27230469 -150.78268188 89.27230469 -149.54077148 90.5703125 C-146.51907108 93.71891521 -143.47409442 96.84412682 -140.42163086 99.96289062 C-139.10496324 101.31471474 -137.7946521 102.67276093 -136.4909668 104.03710938 C-134.61331423 105.9998822 -132.71376561 107.93897382 -130.80859375 109.875 C-130.23225693 110.48746582 -129.6559201 111.09993164 -129.06211853 111.73095703 C-126.2275099 114.56824168 -124.54679451 115.86905926 -120.57446289 116.8203125 C-111.6177262 114.76480842 -104.38326662 104.5202243 -98.0859375 98.19946289 C-97.01109459 97.12433735 -95.93603033 96.04943306 -94.86076355 94.97473145 C-91.96445903 92.07871194 -89.0712319 89.17963607 -86.17857742 86.27997136 C-83.14681636 83.24192735 -80.11219268 80.20674539 -77.07788086 77.17124939 C-71.34229103 71.43256075 -65.60925347 65.69132945 -59.87714481 59.94916385 C-53.34702794 53.40784066 -46.81404598 46.86938208 -40.28083038 40.33115399 C-26.85071271 26.89060477 -13.42416932 13.4464902 0 0 Z " fill="#FAFAFA" transform="translate(356,184)"/>
<path d="M0 0 C10.56 0 21.12 0 32 0 C32 23.76 32 47.52 32 72 C21.44 72 10.88 72 0 72 C0 48.24 0 24.48 0 0 Z " fill="#E6E7E8" transform="translate(80,416)"/>
<path d="M0 0 C0.93714844 -0.00257812 1.87429687 -0.00515625 2.83984375 -0.0078125 C7.80437377 0.06260637 11.52949427 0.18039685 15.5 3.5 C16.88308781 6.26617563 16.61210196 8.51018 16.59765625 11.6015625 C16.59515869 12.69291504 16.59266113 13.78426758 16.59008789 14.90869141 C16.58098389 16.30007324 16.57187988 17.69145508 16.5625 19.125 C16.541875 23.53875 16.52125 27.9525 16.5 32.5 C5.94 32.5 -4.62 32.5 -15.5 32.5 C-15.603125 28.148125 -15.70625 23.79625 -15.8125 19.3125 C-15.85802002 17.94843018 -15.90354004 16.58436035 -15.95043945 15.17895508 C-16.05061185 6.48463713 -16.05061185 6.48463713 -13.63671875 2.16796875 C-9.06372018 -0.26375029 -5.10044587 -0.15434637 0 0 Z " fill="#88B3D2" transform="translate(95.5,95.5)"/>
</svg>
